<svg xmlns="http://www.w3.org/2000/svg" width="644" height="120" fill="none"><path fill="#53DB78" fill-rule="evenodd" d="M89.679 25c1.087 0 1.968.923 1.968 2.06v19.373h.012c8.5.22 15.341 7.32 15.341 16.067 0 8.751-6.848 15.853-15.353 16.066v12.78c0 4.78-3.701 8.654-8.267 8.654H70.741l-.036-.37c-.756-7.77-6.94-13.86-14.52-14.048l-.361-.005c-7.744 0-14.114 6.16-14.882 14.053l-.036.37H21.968C20.881 100 20 99.077 20 97.94V27.06c0-1.137.881-2.06 1.968-2.06zM44.407 46.84c-2.174 0-3.936 1.846-3.936 4.121v23.902c0 2.275 1.762 4.12 3.936 4.12H67.24c2.174 0 3.937-1.845 3.937-4.12V50.962c0-2.276-1.763-4.121-3.937-4.121z" clip-rule="evenodd"/><path fill="#53DB78" d="M150.163 98V26h15.3v72zm29.886 0V26h16l40.3 48V26h15.7v72h-16l-40.5-48.2V98zm113.803 0V41.6h-28.2V26h72v15.6h-28.2V98zm57.479 0V40.8q0-4.1 2-7.4a15 15 0 0 1 5.4-5.4q3.4-2 7.4-2h42.3q4.1 0 7.4 2a14.97 14.97 0 0 1 5.4 5.4q2.1 3.3 2.1 7.4V98h-15.7V74.8h-40.8V98zm15.5-38.8h40.8V41.6h-40.8zM480.325 98l-41.7-72h18l30.2 52.3 30.2-52.3h17.9l-41.7 72zm65.819 0V40.8q0-4.1 2-7.4a14.97 14.97 0 0 1 5.4-5.4q3.4-2 7.4-2h42.3q4.1 0 7.4 2a15 15 0 0 1 5.4 5.4q2.1 3.3 2.1 7.4V98h-15.7V74.8h-40.8V98zm15.5-38.8h40.8V41.6h-40.8z"/></svg>