<svg width="148" height="130" viewBox="0 0 148 130" fill="none" xmlns="http://www.w3.org/2000/svg">
<rect x="2" y="2" width="144" height="126" rx="18" fill="#53DB78"/>
<rect x="2" y="2" width="144" height="126" rx="18" stroke="#53DB78" stroke-width="4"/>
<path fill-rule="evenodd" clip-rule="evenodd" d="M104.09 22C105.34 22 106.353 23.0579 106.353 24.3626V46.576L106.361 46.577H106.367C116.137 46.8289 124 54.9702 124 65C124 75.0347 116.129 83.1776 106.353 83.4221V98.0769C106.353 103.557 102.099 108 96.8507 108H82.3233L82.2818 107.575C81.4126 98.6659 74.3043 91.6833 65.5927 91.4671L65.1765 91.4615C56.2759 91.4616 48.9542 98.5244 48.0712 107.575L48.0296 108H26.2624C25.013 108 24.0002 106.942 24 105.637V24.3626C24.0002 23.058 25.0131 22.0001 26.2624 22H104.09ZM52.0543 47.044C49.5553 47.044 47.5294 49.1595 47.5294 51.7692V79.1758C47.5294 81.7855 49.5553 83.9011 52.0543 83.9011H78.2986C80.7977 83.9011 82.8235 81.7855 82.8235 79.1758V51.7692C82.8235 49.1595 80.7977 47.044 78.2986 47.044H52.0543Z" fill="#353535"/>
</svg>
