<svg width="64" height="56" viewBox="0 0 64 56" fill="none" xmlns="http://www.w3.org/2000/svg">
<rect x="1" y="1" width="62" height="54" rx="7" fill="#53DB78"/>
<rect x="1" y="1" width="62" height="54" rx="7" stroke="#1D4D2A" stroke-width="2"/>
<path fill-rule="evenodd" clip-rule="evenodd" d="M41.491 9.12592C42.0097 9.12592 42.4301 9.56477 42.4302 10.106V19.3204L42.4335 19.3208H42.4361C46.4916 19.4253 49.7557 22.8024 49.7558 26.963C49.7557 31.1255 46.4885 34.5033 42.4302 34.6047V40.6837C42.4301 42.957 40.6641 44.8 38.4857 44.8H32.4551L32.4379 44.6239C32.077 40.928 29.1263 38.0316 25.51 37.9419L25.3372 37.9396C21.6424 37.9396 18.603 40.8693 18.2365 44.6239L18.2192 44.8H9.18332C8.66467 44.8 8.24423 44.361 8.24414 43.8199V10.106C8.24421 9.56479 8.6647 9.12595 9.18332 9.12592H41.491ZM19.8899 19.5145C18.8526 19.5145 18.0116 20.3921 18.0116 21.4746V32.8433C18.0116 33.9258 18.8526 34.8034 19.8899 34.8034H30.7844C31.8218 34.8034 32.6628 33.9258 32.6628 32.8433V21.4746C32.6628 20.3921 31.8218 19.5145 30.7844 19.5145H19.8899Z" fill="#353535"/>
</svg>
