<svg xmlns="http://www.w3.org/2000/svg" width="227" height="56" fill="none"><rect width="62" height="54" x="1" y="1" fill="#53DB78" rx="7"/><rect width="62" height="54" x="1" y="1" stroke="#1D4D2A" stroke-width="2" rx="7"/><path fill="#353535" fill-rule="evenodd" d="M44.971 9.477c.539 0 .976.456.976 1.018v9.569h.006c4.211.108 7.601 3.616 7.601 7.936 0 4.323-3.393 7.83-7.607 7.936v6.313c0 2.36-1.834 4.274-4.097 4.274h-6.262l-.018-.183c-.375-3.838-3.439-6.846-7.194-6.939l-.18-.002c-3.837 0-6.993 3.042-7.373 6.941l-.018.183H11.42c-.538 0-.975-.456-.975-1.018v-35.01c0-.562.437-1.018.975-1.018zM22.54 20.265c-1.078 0-1.951.911-1.951 2.036v11.805c0 1.125.873 2.036 1.95 2.036h11.314c1.077 0 1.95-.911 1.95-2.036V22.301c0-1.125-.873-2.036-1.95-2.036z" clip-rule="evenodd"/><path fill="#fff" d="M75.192 43V19.96h4.896V43zm9.564 0V19.96h5.12l12.896 15.36V19.96h5.024V43h-5.12l-12.96-15.424V43zm36.417 0V24.952h-9.024V19.96h23.04v4.992h-9.024V43zm18.393 0V24.696q0-1.312.64-2.368a4.8 4.8 0 0 1 1.728-1.728 4.6 4.6 0 0 1 2.368-.64h13.536q1.312 0 2.368.64a4.8 4.8 0 0 1 1.728 1.728q.672 1.056.672 2.368V43h-5.024v-7.424h-13.056V43zm4.96-12.416h13.056v-5.632h-13.056zM180.844 43 167.5 19.96h5.76l9.664 16.736 9.664-16.736h5.728L184.972 43zm21.062 0V24.696q0-1.312.64-2.368a4.8 4.8 0 0 1 1.728-1.728 4.6 4.6 0 0 1 2.368-.64h13.536q1.312 0 2.368.64a4.8 4.8 0 0 1 1.728 1.728q.672 1.056.672 2.368V43h-5.024v-7.424h-13.056V43zm4.96-12.416h13.056v-5.632h-13.056z"/></svg>