<svg width="540" height="130" viewBox="0 0 540 130" fill="none" xmlns="http://www.w3.org/2000/svg">
<rect x="2.0918" y="2" width="144" height="126" rx="18" fill="#353535"/>
<rect x="2.0918" y="2" width="144" height="126" rx="18" stroke="#1D4D2A" stroke-width="4"/>
<path fill-rule="evenodd" clip-rule="evenodd" d="M104.182 22C105.432 22 106.445 23.0579 106.445 24.3626V46.576L106.453 46.577H106.459C116.229 46.8289 124.092 54.9702 124.092 65C124.092 75.0347 116.221 83.1776 106.445 83.4221V98.0769C106.445 103.557 102.19 108 96.9425 108H82.4151L82.3736 107.575C81.5044 98.6659 74.3961 91.6833 65.6845 91.4671L65.2683 91.4615C56.3677 91.4616 49.046 98.5244 48.163 107.575L48.1214 108H26.3542C25.1048 108 24.092 106.942 24.0918 105.637V24.3626C24.092 23.058 25.1049 22.0001 26.3542 22H104.182ZM52.1461 47.044C49.6471 47.044 47.6212 49.1595 47.6212 51.7692V79.1758C47.6212 81.7855 49.6471 83.9011 52.1461 83.9011H78.3904C80.8895 83.9011 82.9153 81.7855 82.9153 79.1758V51.7692C82.9153 49.1595 80.8895 47.044 78.3904 47.044H52.1461Z" fill="#53DB78"/>
<path d="M174.79 107V51.5602H186.571V107H174.79ZM197.803 107V51.5602H210.123L241.154 88.5202V51.5602H253.243V107H240.923L209.738 69.8862V107H197.803ZM285.431 107V63.5722H263.717V51.5602H319.157V63.5722H297.443V107H285.431ZM329.69 107V62.9562C329.69 60.8516 330.203 58.9522 331.23 57.2582C332.257 55.5129 333.643 54.1269 335.388 53.1002C337.133 52.0736 339.033 51.5602 341.086 51.5602H373.657C375.762 51.5602 377.661 52.0736 379.355 53.1002C381.1 54.1269 382.486 55.5129 383.513 57.2582C384.591 58.9522 385.13 60.8516 385.13 62.9562V107H373.041V89.1362H341.625V107H329.69ZM341.625 77.1242H373.041V63.5722H341.625V77.1242ZM429.015 107L396.906 51.5602H410.766L434.02 91.8312L457.274 51.5602H471.057L438.948 107H429.015ZM479.696 107V62.9562C479.696 60.8516 480.209 58.9522 481.236 57.2582C482.262 55.5129 483.648 54.1269 485.394 53.1002C487.139 52.0736 489.038 51.5602 491.092 51.5602H523.663C525.767 51.5602 527.667 52.0736 529.361 53.1002C531.106 54.1269 532.492 55.5129 533.519 57.2582C534.597 58.9522 535.136 60.8516 535.136 62.9562V107H523.047V89.1362H491.631V107H479.696ZM491.631 77.1242H523.047V63.5722H491.631V77.1242Z" fill="#353535"/>
</svg>
