<svg width="540" height="130" viewBox="0 0 540 130" fill="none" xmlns="http://www.w3.org/2000/svg">
<rect x="2.0918" y="2" width="144" height="126" rx="18" fill="#53DB78"/>
<rect x="2.0918" y="2" width="144" height="126" rx="18" stroke="#53DB78" stroke-width="4"/>
<path fill-rule="evenodd" clip-rule="evenodd" d="M104.182 22C105.432 22 106.445 23.0579 106.445 24.3626V46.576L106.453 46.577H106.459C116.229 46.8289 124.092 54.9702 124.092 65C124.092 75.0347 116.221 83.1776 106.445 83.4221V98.0769C106.445 103.557 102.19 108 96.9425 108H82.4151L82.3736 107.575C81.5044 98.6659 74.3961 91.6833 65.6845 91.4671L65.2683 91.4615C56.3677 91.4616 49.046 98.5244 48.163 107.575L48.1214 108H26.3542C25.1048 108 24.092 106.942 24.0918 105.637V24.3626C24.092 23.058 25.1049 22.0001 26.3542 22H104.182ZM52.1461 47.044C49.6471 47.044 47.6212 49.1595 47.6212 51.7692V79.1758C47.6212 81.7855 49.6471 83.9011 52.1461 83.9011H78.3904C80.8895 83.9011 82.9153 81.7855 82.9153 79.1758V51.7692C82.9153 49.1595 80.8895 47.044 78.3904 47.044H52.1461Z" fill="#353535"/>
<path d="M175.29 107V51.5602H187.071V107H175.29ZM198.303 107V51.5602H210.623L241.654 88.5202V51.5602H253.743V107H241.423L210.238 69.8862V107H198.303ZM285.931 107V63.5722H264.217V51.5602H319.657V63.5722H297.943V107H285.931ZM330.19 107V62.9562C330.19 60.8516 330.703 58.9522 331.73 57.2582C332.757 55.5129 334.143 54.1269 335.888 53.1002C337.633 52.0736 339.533 51.5602 341.586 51.5602H374.157C376.262 51.5602 378.161 52.0736 379.855 53.1002C381.6 54.1269 382.986 55.5129 384.013 57.2582C385.091 58.9522 385.63 60.8516 385.63 62.9562V107H373.541V89.1362H342.125V107H330.19ZM342.125 77.1242H373.541V63.5722H342.125V77.1242ZM429.515 107L397.406 51.5602H411.266L434.52 91.8312L457.774 51.5602H471.557L439.448 107H429.515ZM480.196 107V62.9562C480.196 60.8516 480.709 58.9522 481.736 57.2582C482.762 55.5129 484.148 54.1269 485.894 53.1002C487.639 52.0736 489.538 51.5602 491.592 51.5602H524.163C526.267 51.5602 528.167 52.0736 529.861 53.1002C531.606 54.1269 532.992 55.5129 534.019 57.2582C535.097 58.9522 535.636 60.8516 535.636 62.9562V107H523.547V89.1362H492.131V107H480.196ZM492.131 77.1242H523.547V63.5722H492.131V77.1242Z" fill="white"/>
</svg>
