<svg width="241" height="166" viewBox="0 0 241 166" fill="none" xmlns="http://www.w3.org/2000/svg">
<rect x="66.3162" y="3.5" width="108" height="95" rx="19" fill="#353535"/>
<rect x="66.3162" y="3.5" width="108" height="95" rx="19" stroke="#53DB78" stroke-width="2"/>
<path fill-rule="evenodd" clip-rule="evenodd" d="M138.952 18.3074C139.851 18.3074 140.579 19.0675 140.579 20.005V35.9657L140.585 35.9664H140.589C147.614 36.1474 153.268 41.9971 153.268 49.2037C153.268 56.4138 147.609 62.2646 140.579 62.4403V72.9701C140.579 76.9077 137.52 80.1 133.747 80.1H123.301L123.271 79.7949C122.646 73.3932 117.535 68.3761 111.271 68.2208L110.972 68.2168C104.572 68.2168 99.3071 73.2915 98.6722 79.7949L98.6423 80.1H82.9908C82.0924 80.0999 81.3642 79.3397 81.364 78.4024V20.005C81.3641 19.0676 82.0925 18.3074 82.9908 18.3074H138.952ZM101.536 36.3019C99.7393 36.3019 98.2826 37.822 98.2826 39.6971V59.3893C98.2826 61.2644 99.7393 62.7845 101.536 62.7845H120.407C122.204 62.7845 123.661 61.2644 123.661 59.3893V39.6971C123.661 37.822 122.204 36.3019 120.407 36.3019H101.536Z" fill="#53DB78"/>
<path d="M2.64741 162.5V126.5H10.2974V162.5H2.64741ZM17.5908 162.5V126.5H25.5908L45.7408 150.5V126.5H53.5908V162.5H45.5908L25.3408 138.4V162.5H17.5908ZM74.4923 162.5V134.3H60.3923V126.5H96.3923V134.3H82.2923V162.5H74.4923ZM103.232 162.5V133.9C103.232 132.533 103.565 131.3 104.232 130.2C104.898 129.067 105.798 128.167 106.932 127.5C108.065 126.833 109.298 126.5 110.632 126.5H131.782C133.148 126.5 134.382 126.833 135.482 127.5C136.615 128.167 137.515 129.067 138.182 130.2C138.882 131.3 139.232 132.533 139.232 133.9V162.5H131.382V150.9H110.982V162.5H103.232ZM110.982 143.1H131.382V134.3H110.982V143.1ZM167.729 162.5L146.879 126.5H155.879L170.979 152.65L186.079 126.5H195.029L174.179 162.5H167.729ZM200.638 162.5V133.9C200.638 132.533 200.971 131.3 201.638 130.2C202.305 129.067 203.205 128.167 204.338 127.5C205.471 126.833 206.705 126.5 208.038 126.5H229.188C230.555 126.5 231.788 126.833 232.888 127.5C234.021 128.167 234.921 129.067 235.588 130.2C236.288 131.3 236.638 132.533 236.638 133.9V162.5H228.788V150.9H208.388V162.5H200.638ZM208.388 143.1H228.788V134.3H208.388V143.1Z" fill="#353535"/>
</svg>
